<?xml version="1.0" encoding="utf-8"?>
<!-- Generator: Adobe Illustrator 26.1.0, SVG Export Plug-In . SVG Version: 6.00 Build 0)  -->
<svg version="1.1" id="Слой_1" xmlns="http://www.w3.org/2000/svg" xmlns:xlink="http://www.w3.org/1999/xlink" x="0px" y="0px"
	 viewBox="0 0 160 160" style="enable-background:new 0 0 160 160;" xml:space="preserve">
<style type="text/css">
	.st0{fill:#F6A505;}
	.st1{fill:#6292C7;}
	.st2{fill:#C2C2C3;}
	.st3{fill:#FFFFFF;}
	.st4{fill:#F6A505;stroke:#FFFFFF;stroke-width:2;stroke-miterlimit:10;}
	.st5{fill:#6294C9;}
</style>
<circle class="st0" cx="58.3" cy="29.2" r="17.8"/>
<g>
	<path class="st1" d="M89.1,53.2c0,0.3,0,0.7,0,1c-0.7,1.7-1.6,3.2-2.8,4.6c-2.8,2.9-5.7,5.7-8.9,8.1c-5,3.9-9.8,8-14.4,12.3
		c-0.5,0.4-0.9,0.6-1.5,0.6c-1.9-0.1-3.8-0.2-5.7-0.2c-2.4-0.2-4.7,0-7.2,0.2c-2.3,0.2-4.3,0.8-6.3,2c-2.4,1.5-4.1,3.6-5.8,5.8
		c-2.1,2.8-4.2,5.5-5.3,8.9c-0.7,2.4,0.2,4.1,2.6,5c0.9,0.4,2,0,3.1,0.5c-1.5,1-2.4,2.5-3.5,3.7c-0.9,0.9-1.4,2-1.8,3.2
		c-0.5,1.4,0,2.4,1,3.1c2,1.7,4.6,1.8,6.9,1.9c1.8,0.1,3.7-0.2,5.4-0.9c0.3-0.1,0.6-0.2,0.8,0.4c0.8,2.5,2.4,3.8,4.8,4
		c5,0.5,8.5-2.2,11.7-5.5c0.3-0.3,0.8-0.9,0.3-1.4s-1,0-1.5,0.2c-0.9,0.6-1.6,1.3-2.4,1.9c-2.2,1.5-4.5,2.6-7.2,2.3
		c-1.2-0.1-2.4-0.5-3-1.7s0.5-2,1.1-2.8c0.9-1.2,2-2.1,3.1-3.1c3.1-2.7,6.3-4.6,10.8-3.9c4.1,0.6,8,1.5,11.8,3.2
		c3.1,1.4,3.6,3.2,2.1,6.4c-1.6,3.4-4,6.2-6.6,8.8c-2.7,2.6-5.5,5.1-8.6,7.2c-3.5,2.4-7.3,5-13.1,6.4c-1.1,0.3-2,0.5-2.7,0.6
		c-0.6,0-1.3,0.1-1.9,0.1c-0.4,0-0.9,0-1.6-0.1c0,0-0.6-0.2-1-0.2c-6.8-1.6-13.8-7.6-13.8-7.6c-4.2-3.5-7.8-7.7-10.1-12.8
		c-1.8-4-2.6-8.1-1.4-12.5c1.1-4.3,3.1-8.3,4.3-12.6c0.9-3.1,1.9-6.3,2.1-9.6c0.3-3.5-0.4-6.8-1.4-10.1c-1.3-4.3-3.1-8.3-6.1-11.9
		c-2.1-2.6-1.2-5.3,2-6.3c2.8-0.9,5.3-0.2,7.7,1.1c4.6,2.4,7.4,6.3,9.3,10.9c2,4.9,3.1,9.9,3.1,15.1c0,0.2-0.1,0.6,0.2,0.6
		c0.2,0,0.4-0.2,0.6-0.3c3.3-2.6,6.7-5.3,10-7.9C54,67.4,59.9,63.1,65.9,59c4-2.8,8-5.4,12.7-7.2c1.7-0.6,3.5-0.9,5.1-1.3
		c0.5,0,0.9,0,1.3,0C86.8,50.9,88.3,51.6,89.1,53.2z"/>
	<path class="st1" d="M75.8,100.1c-0.1,0.9-0.2,1.7-0.2,2.4c-0.1,1.2-0.5,1.1-1.3,0.8c-3.7-1.3-7.5-1.9-11.3-2.4
		c-4.3-0.6-7.5,1-10.6,3.7c-1.6,1.3-3.1,2.8-4.6,4.1c-2,1.6-4.4,2.3-6.9,2.5c-1.4,0.2-2.9,0.2-4.4-0.2c-1.7-0.5-2.1-1.4-1.2-2.8
		c1.3-2,3-3.8,4.8-5.4c1.9-1.7,3.9-3.4,5.8-5.1c1.2-1,2.3-2,3.6-2.9c1.7-1,3.5-1.3,5.4-1.4c5.8-0.3,11.6,0.2,17.1,2
		C74.7,96.2,76.1,97.6,75.8,100.1z"/>
	<path class="st1" d="M52.9,82.5c4.2-0.1,8.5,0.4,12.7,1c3.4,0.6,4.3,3,3.8,5.8c-0.4,2.2-0.6,2.2-3.5,1.7c-4.8-0.9-9.6-1.1-14.4-0.2
		c-2.2,0.5-4,1.7-5.7,3.1c-2,1.7-4,3.4-6.1,5c-1.1,0.9-4.6,0.6-5.7-0.2c-0.9-0.8-0.6-1.7-0.2-2.6c1.1-2.4,2.8-4.6,4.4-6.8
		c1.2-1.7,2.5-3.1,4.1-4.5c2.1-1.8,4.7-2.3,7.4-2.4C51,82.4,51.9,82.5,52.9,82.5z"/>
</g>
<path class="st2" d="M32.7,42c-0.7-0.2-1.3-0.6-1.8-1c-3.1-2.1-6.1-4.1-9.4-6c-2.4-1.4-4.7-2.8-7.1-4.2c-3.2-1.9-6.5-3.7-9.8-5.6
	c-1.4-0.8-2.8-1.7-3.7-3.1c-0.3-0.5-0.2-1-0.2-1.5c0.1-0.3,0.4-0.5,0.7-0.5C2.3,20,3,20.4,3.7,20.9c3.3,2.3,6.6,4.6,9.9,6.9
	c3.6,2.6,7.2,5.3,10.9,7.9c2.5,1.8,5,3.7,7.5,5.5C32.3,41.4,32.5,41.6,32.7,42z"/>
<path class="st2" d="M19.6,41.2c-0.6,0.2-1.3-0.1-2-0.2c-3.5-0.7-7.1-1.3-10.6-1.8c-1.7-0.2-3.5-0.6-5.2-0.9c-0.6-0.1-1-0.4-1.5-0.7
	C0.1,37.4-0.1,37,0,36.7S0.4,36,0.7,36c0.5,0,0.9-0.1,1.3,0.1c4.2,1.4,8.5,2.5,12.8,3.6c1.4,0.4,2.8,0.7,4.2,1
	C19.3,40.8,19.5,40.9,19.6,41.2z"/>
<path class="st2" d="M20.8,16c0-0.5-0.1-0.9,0.4-1.1c0.5-0.2,0.8,0.1,1.1,0.3c0.9,0.8,1.2,1.9,1.7,2.8c1.2,2.2,2.4,4.4,3.6,6.5
	c1.1,1.9,2.2,3.8,3.3,5.7c0.2,0.2,0.3,0.5,0,0.6c-0.2,0.2-0.3-0.2-0.5-0.3c-1.8-2.5-3.5-5-5.3-7.6c-1.3-1.8-2.7-3.5-3.9-5.4
	C21,17,20.7,16.5,20.8,16z"/>
<path class="st3" d="M64.6,29.7c3.1-2.9,2.8-6.1-0.7-8.8c0.2-0.5,0.3-0.9,0.5-1.5c0.2-0.9-0.1-1.6-0.9-1.8c-0.7-0.2-1.4,0.2-1.7,1
	c-0.2,0.6-0.3,1-0.5,1.5c-0.6-0.2-1.2-0.4-1.7-0.6c0.2-0.6,0.3-1,0.5-1.5c0.2-0.9-0.1-1.7-0.9-1.9s-1.4,0.2-1.7,1.1
	c-0.2,0.5-0.3,1-0.5,1.5c-0.6-0.2-1-0.3-1.5-0.5c-0.8-0.2-1.5,0.1-1.7,0.9c-0.2,0.7,0.2,1.4,0.9,1.7c0.5,0.2,1,0.3,1.5,0.5
	c-1.3,4-2.4,7.9-3.6,11.9c-0.6-0.2-1-0.3-1.5-0.5c-0.8-0.2-1.5,0.1-1.7,0.9c-0.2,0.7,0.2,1.4,0.9,1.7c0.5,0.2,1,0.3,1.4,0.5
	c0,0.1,0,0.2,0,0.2c-0.2,0.6-0.3,1.1-0.5,1.7c-0.2,0.8,0.2,1.5,0.9,1.7s1.4-0.2,1.7-0.9c0.2-0.6,0.4-1.2,0.6-1.7
	c0.6,0.2,1.2,0.4,1.7,0.6c-0.2,0.6-0.4,1.2-0.6,1.8c-0.2,0.8,0.2,1.5,0.9,1.7s1.4-0.2,1.7-0.9c0.2-0.6,0.4-1.2,0.6-1.8
	c2.6,0.9,4.9,0.6,6.4-1.7C66.7,34,66.4,31.7,64.6,29.7z M58.9,22.3c1.3,0.4,2.8,0.7,4.1,1.3c1,0.5,1.3,1.7,0.9,2.8
	c-0.4,1-1.5,1.7-2.6,1.5c-1.3-0.3-2.6-0.8-3.9-1.2C57.9,25.3,58.4,23.8,58.9,22.3z M60.4,35.7c-1.7-0.5-3.4-1-5.2-1.6
	c0.5-1.6,0.9-3,1.4-4.6c0.4,0.2,0.8,0.2,1.2,0.4c1.3,0.4,2.7,0.8,3.9,1.3c1.3,0.4,2,1.7,1.6,3C63,35.4,61.6,36.1,60.4,35.7z"/>
<g>
	<g>
		<g>
			<circle class="st4" cx="120.2" cy="73.6" r="14.5"/>
			<path class="st3" d="M125.2,74c2.5-2.4,2.3-5-0.7-7.1c0.1-0.3,0.2-0.8,0.3-1.2c0.2-0.8-0.1-1.2-0.8-1.5c-0.7-0.2-1.1,0.1-1.4,0.9
				c-0.1,0.5-0.2,0.9-0.3,1.2c-0.5-0.2-1-0.3-1.4-0.5c0.1-0.5,0.2-0.9,0.3-1.2c0.2-0.8-0.1-1.4-0.8-1.5s-1.1,0.2-1.4,0.9
				c-0.1,0.3-0.2,0.9-0.3,1.2c-0.5-0.1-0.9-0.2-1.2-0.3c-0.7-0.2-1.2,0.1-1.4,0.8c-0.2,0.7,0.1,1.1,0.8,1.4c0.3,0.1,0.9,0.2,1.2,0.3
				c-1,3.3-2,6.5-2.9,9.7c-0.5-0.1-0.9-0.2-1.2-0.3c-0.7-0.2-1.2,0.1-1.4,0.8c-0.2,0.7,0.1,1.1,0.8,1.4c0.3,0.1,0.9,0.2,1.1,0.3
				c0,0.1,0,0.1,0,0.1c-0.1,0.5-0.2,0.9-0.3,1.4c-0.2,0.7,0.1,1.2,0.8,1.4c0.7,0.2,1.1-0.1,1.4-0.8c0.1-0.5,0.3-1,0.5-1.4
				c0.5,0.1,1,0.3,1.4,0.5c-0.1,0.5-0.3,1-0.5,1.5c-0.2,0.7,0.1,1.2,0.8,1.4c0.7,0.2,1.1-0.1,1.4-0.8c0.1-0.5,0.3-1,0.5-1.5
				c2.2,0.8,3.9,0.5,5.3-1.4C127,77.5,126.6,75.7,125.2,74z M120.5,68c1.1,0.3,2.3,0.7,3.3,1.1c0.9,0.3,1.1,1.4,0.8,2.3
				s-1.2,1.4-2.2,1.2c-1.1-0.2-2.2-0.7-3.2-1C119.8,70.5,120.2,69.2,120.5,68z M121.8,79c-1.4-0.3-2.7-0.9-4.2-1.2
				c0.3-1.2,0.8-2.4,1.1-3.6c0.3,0.1,0.7,0.2,1,0.3c1.1,0.3,2.2,0.7,3.2,1c1.1,0.3,1.6,1.4,1.2,2.4C123.9,78.6,122.8,79.2,121.8,79z
				"/>
		</g>
	</g>
	<g>
		<path class="st5" d="M110.6,135.8c0.1-2.3-0.1-4.6,0.2-6.8c0.3-2.9,3-4.8,5.2-5.1c2.9-0.4,5.8-0.4,8.6,0c3.1,0.5,5.3,3.1,5.3,6.3
			c0,1.9,0,3.7,0,5.6C123.5,135.8,117.1,135.8,110.6,135.8z"/>
		<path class="st5" d="M108.5,135.8c-6.4,0-12.7,0-19.2,0c0.1-2.6-0.4-5.2,0.3-7.8c0.5-1.9,1.9-3.2,3.7-3.7c3.7-1.1,7.5-1.1,11.2,0
			c2.6,0.8,4,3,4,5.7C108.5,131.9,108.5,133.8,108.5,135.8z"/>
		<path class="st5" d="M151.2,135.8c-6.4,0-12.7,0-19.1,0c0-2.4-0.2-4.7,0-7c0.2-2.4,2.7-4.6,5.4-5c2.8-0.4,5.6-0.4,8.3,0
			c3,0.5,5.6,2.8,5.4,6.4C151.2,132,151.2,133.9,151.2,135.8z"/>
		<path class="st5" d="M104,121.8c2.3-2.3,3.3-4.9,2.5-7.9c-0.8-3-2.8-4.9-5.8-5.8c1-1.9,2.7-3.1,4.6-3.4c3.1-0.5,6.2-0.6,9.2,0.1
			c1.7,0.4,3,1.5,4.1,3.1c-2.9,1-5.1,2.8-5.9,5.9c-0.8,3.1,0.2,5.6,2.4,7.9c-2.3,0.8-4.2,2-5.5,4.2
			C108.2,123.9,106.4,122.6,104,121.8z"/>
		<path class="st5" d="M122,108.1c1.3-2.1,3.2-3.3,5.4-3.5c2.6-0.2,5.2-0.3,7.8,0.1c2.1,0.4,3.7,1.6,4.7,3.4c-2.9,0.9-5,2.7-5.8,5.7
			c-0.8,3,0.2,5.6,2.5,7.9c-2.3,0.9-4.2,2-5.6,4.2c-1.4-2.1-3.3-3.4-5.6-4.1c2.2-2.3,3.3-4.8,2.5-7.9
			C127.1,111,125.1,109.1,122,108.1z"/>
		<path class="st5" d="M140.6,84.4c0.3,0.8,0.5,1.6,0.8,2.3c0.3,0.7-0.1,1.2-0.7,1.5c-0.7,0.3-1.2-0.1-1.4-0.6
			c-0.9-2.3-1.7-4.6-2.4-7c-0.3-1,0.4-1.6,1.4-1.5c2.3,0.3,4.5,0.6,6.8,0.9c0.7,0.1,1.3,0.4,1.2,1.2c-0.1,0.9-0.7,1.2-1.5,1.1
			c-0.9-0.1-1.7-0.2-2.6-0.3c-0.1,0.1-0.2,0.2-0.3,0.3c0.4,0.3,0.9,0.6,1.3,1c5.1,4.8,8.6,10.6,10.6,17.3c0.8,2.8,1.2,5.8,1.6,8.7
			c0.2,1.8,0.1,3.5,0.2,5.2c0,0.8-0.6,1.5-1.3,1.4c-0.9-0.1-1.1-0.6-1.1-1.4c0-1.7,0-3.4-0.1-5.1c-0.4-4.7-1.5-9.1-3.4-13.4
			c-1.9-4.2-4.6-7.8-7.9-11c-0.3-0.3-0.5-0.6-0.9-0.7c-0.1,0-0.1-0.1-0.2-0.1C140.6,84.2,140.6,84.3,140.6,84.4z"/>
		<path class="st5" d="M99.8,84.2c-2,1.5-3.5,3.5-5,5.5c-4,5.3-6.2,11.3-7,17.9c-0.3,2.3-0.2,4.6-0.3,6.8c0,0.6-0.2,1.1-0.7,1.3
			c-0.6,0.3-1,0-1.5-0.4c-0.3-0.2-0.3-0.6-0.3-0.9c-0.1-8.7,1.8-16.9,6.5-24.3c1.3-2,2.8-3.9,4.5-5.6c0.8-0.8,1.7-1.7,2.6-2.6
			c-0.8-0.3-1.5,0.1-2.2,0.1c-0.4,0-0.8,0.1-1.2,0c-0.5-0.1-0.9-0.5-0.9-1.1c0-0.6,0.3-1.1,0.9-1.1c2.4-0.3,4.9-0.7,7.3-0.9
			c0.9-0.1,1.5,0.7,1.2,1.7c-0.7,2.3-1.5,4.5-2.4,6.8c-0.2,0.6-0.8,1-1.5,0.7c-0.7-0.3-0.9-0.8-0.7-1.6c0.3-0.7,0.5-1.5,0.7-2.2
			c0-0.1,0-0.2,0.1-0.2C99.9,84.2,99.9,84.2,99.8,84.2z"/>
		<path class="st5" d="M130.9,102.5c-3.2,0-5.7-2.6-5.6-5.9c0-2.9,2.2-5.7,5.7-5.6c3.4,0.1,5.7,2.1,5.8,5.8
			C136.8,100.1,134.2,102.5,130.9,102.5z"/>
		<path class="st5" d="M141.6,121.5c-3.3,0-5.7-2.4-5.6-5.8c0-3.2,2.5-5.6,5.8-5.6c3.2,0,5.6,2.5,5.6,5.7
			C147.3,119.1,144.9,121.5,141.6,121.5z"/>
		<path class="st5" d="M120.3,110.1c3.4-0.1,5.7,2.5,5.7,5.7c0,3.9-3.2,5.7-5.7,5.7c-2.6,0-5.7-2-5.7-5.6
			C114.5,112.7,117,110.1,120.3,110.1z"/>
		<path class="st5" d="M115.3,96.7c0,3.1-2.6,5.9-5.7,5.8c-3.5-0.1-5.9-2.4-5.8-5.9c0.1-3.5,2.3-5.5,5.7-5.6
			C113.2,90.9,115.3,94,115.3,96.7z"/>
		<path class="st5" d="M98.9,110.1c3.2,0,5.7,2.5,5.7,5.7c0,3.2-2.5,5.7-5.7,5.7c-3.2,0-5.6-2.5-5.6-5.6
			C93.2,112.6,95.6,110.1,98.9,110.1z"/>
	</g>
</g>
</svg>
